<?xml version="1.0" encoding="UTF-8" standalone="no"?>
<!DOCTYPE svg PUBLIC "-//W3C//DTD SVG 20010904//EN"
              "http://www.w3.org/TR/2001/REC-SVG-20010904/DTD/svg10.dtd">

<svg xmlns="http://www.w3.org/2000/svg"
     width="13.8889in" height="9.40278in"
     viewBox="0 0 1000 677">
  <path id="25"
        fill="none" stroke="black" stroke-width="1"
        d="M 498.67,225.33
           C 498.67,225.33 488.33,193.67 488.33,193.67
             488.33,193.67 479.67,181.00 479.67,181.00
             479.67,181.00 468.33,164.00 468.33,164.00
             468.33,164.00 453.67,140.67 453.67,140.67
             453.67,140.67 441.67,119.33 441.67,119.33
             441.67,119.33 425.33,89.67 425.33,89.67
             425.33,89.67 411.33,63.33 411.33,63.33
             411.33,63.33 400.00,37.67 400.00,37.67
             400.00,37.67 385.67,12.00 385.67,12.00
             385.67,12.00 379.33,0.00 379.33,0.00" />
  <path id="24"
        fill="none" stroke="black" stroke-width="1"
        d="M 502.50,226.75
           C 502.50,226.75 496.73,200.91 496.73,200.91
             496.73,200.91 487.50,166.50 487.50,166.50
             487.50,166.50 475.25,131.25 475.25,131.25
             475.25,131.25 464.25,97.25 464.25,97.25
             464.25,97.25 450.50,61.25 450.50,61.25
             450.50,61.25 439.17,31.75 439.17,31.25
             439.17,30.75 432.25,10.75 431.75,10.75
             431.25,10.75 427.58,0.75 427.58,0.75" />
  <path id="23"
        fill="none" stroke="black" stroke-width="1"
        d="M 507.00,227.50
           C 507.00,227.50 505.50,199.50 505.50,199.50
             505.50,199.50 501.50,171.50 501.50,171.00
             501.50,170.50 496.50,132.00 496.50,132.00
             496.50,132.00 489.50,94.00 489.50,94.00
             489.50,94.00 484.50,61.50 484.50,61.50
             484.50,61.50 481.00,29.00 481.00,29.00
             481.00,29.00 477.00,0.00 477.00,0.00" />
  <path id="22"
        fill="none" stroke="black" stroke-width="1"
        d="M 511.33,225.67
           C 511.33,225.67 511.33,197.33 511.33,197.33
             511.33,197.33 509.67,162.67 509.67,162.67
             509.67,162.67 507.67,128.33 507.67,128.33
             507.67,128.33 505.00,95.67 505.00,95.67
             505.00,95.67 502.33,64.00 502.33,64.00
             502.33,64.00 498.67,36.00 498.67,36.00
             498.67,36.00 495.67,0.67 495.67,0.67" />
  <path id="21"
        fill="none" stroke="black" stroke-width="1"
        d="M 519.33,228.00
           C 519.33,228.00 520.67,214.00 520.67,214.00
             520.67,214.00 522.67,194.00 522.67,194.00
             522.67,194.00 525.00,166.00 525.00,166.00
             525.00,166.00 527.33,146.67 527.33,146.67
             527.33,146.67 530.00,119.00 530.00,119.00
             530.00,119.00 535.00,79.00 535.00,79.00
             535.00,79.00 537.67,54.33 537.67,54.33
             537.67,54.33 541.67,24.67 541.67,24.67
             541.67,24.67 544.67,0.00 544.67,0.00" />
  <path id="20"
        fill="none" stroke="black" stroke-width="1"
        d="M 522.00,229.33
           C 522.00,229.33 527.33,193.33 528.00,193.33
             528.67,193.33 534.67,159.33 534.67,159.33
             534.67,159.33 545.33,111.33 545.33,111.33
             545.33,111.33 553.33,76.67 553.33,76.67
             553.33,76.67 561.33,46.00 561.33,46.00
             561.33,46.00 568.67,16.00 568.67,16.00
             568.67,16.00 572.00,0.00 572.00,0.00" />
  <path id="19"
        fill="none" stroke="black" stroke-width="1"
        d="M 525.33,228.00
           C 525.33,228.00 534.00,203.33 534.00,203.33
             534.00,203.33 550.00,174.67 550.00,174.67
             550.00,174.67 566.00,141.33 566.00,141.33
             566.00,141.33 581.33,109.33 582.00,108.67
             582.67,108.00 599.33,73.33 599.33,73.33
             599.33,73.33 620.00,33.33 620.00,33.33
             620.00,33.33 641.33,-0.67 641.33,-0.67" />
  <path id="18"
        fill="none" stroke="black" stroke-width="1"
        d="M 526.67,230.67
           C 526.67,230.67 534.67,212.67 534.67,212.67
             534.67,212.67 548.00,194.00 548.00,194.00
             548.00,194.00 559.33,176.00 559.33,176.00
             559.33,176.00 571.33,154.00 571.33,154.00
             571.33,154.00 582.67,134.67 582.67,134.67
             582.67,134.67 598.67,102.00 598.67,102.00
             598.67,102.00 625.33,57.33 625.33,57.33
             625.33,57.33 648.67,18.67 649.33,18.67
             650.00,18.67 660.67,-0.67 660.67,-0.67" />
  <path id="17"
        fill="none" stroke="black" stroke-width="1"
        d="M 535.33,232.00
           C 535.33,232.00 546.00,219.33 546.00,219.33
             546.00,219.33 564.00,197.33 564.00,197.33
             564.00,197.33 583.33,176.00 584.00,176.00
             584.67,176.00 613.33,147.33 613.33,147.33
             613.33,147.33 645.33,116.00 645.33,116.00
             645.33,116.00 672.00,86.67 672.00,86.67
             672.00,86.67 700.00,58.67 700.00,58.67
             700.00,58.67 723.33,34.67 723.33,34.67
             723.33,34.67 756.67,-0.67 756.67,-0.67" />
  <path id="16"
        fill="none" stroke="black" stroke-width="1"
        d="M 547.00,442.67
           C 547.00,442.67 555.00,449.00 555.00,449.00
             555.00,449.00 563.00,453.00 563.00,453.00
             563.00,453.00 573.33,457.67 573.33,457.67
             573.33,457.67 581.00,464.00 581.00,464.00
             581.00,464.00 592.00,469.67 592.00,469.67
             592.00,469.67 606.67,479.00 606.67,479.00
             606.67,479.00 635.67,490.67 635.67,490.67
             635.67,490.67 678.33,516.33 678.33,516.33
             678.33,516.33 709.00,533.33 709.00,533.33
             709.00,533.33 740.00,550.33 740.00,550.33
             740.00,550.33 767.67,566.67 768.00,566.67
             768.33,566.67 803.33,587.67 803.33,587.67
             803.33,587.67 843.50,613.00 843.50,613.00
             843.50,613.00 879.00,637.50 879.50,637.50
             880.00,637.50 931.33,676.67 931.33,676.67" />
  <path id="15"
        fill="none" stroke="black" stroke-width="1"
        d="M 540.73,445.82
           C 540.73,445.82 570.00,463.09 570.00,463.09
             570.00,463.09 596.18,480.55 596.18,480.55
             596.18,480.55 618.50,497.75 618.75,498.00
             619.00,498.25 646.75,517.00 646.75,517.00
             646.75,517.00 685.00,545.75 685.00,545.75
             685.00,545.75 722.00,574.00 722.00,574.00
             722.00,574.00 772.67,614.00 772.67,614.00
             772.67,614.00 816.67,650.00 816.67,650.00
             816.67,650.00 848.67,676.67 848.67,676.67" />
  <path id="14"
        fill="none" stroke="black" stroke-width="1"
        d="M 537.33,445.67
           C 537.33,445.67 561.67,465.00 561.67,465.00
             561.67,465.00 591.67,492.33 592.33,492.67
             593.00,493.00 622.67,520.67 622.67,520.67
             622.67,520.67 654.67,548.33 654.67,548.33
             654.67,548.33 691.67,580.00 691.67,580.00
             691.67,580.00 730.50,614.00 730.50,614.00
             730.50,614.00 776.50,653.50 776.50,653.50
             776.50,653.50 802.00,676.00 802.50,676.00" />
  <path id="13"
        fill="none" stroke="black" stroke-width="1"
        d="M 524.00,449.50
           C 524.00,449.50 539.23,464.45 539.23,464.45
             539.23,464.45 548.50,474.50 548.50,474.50
             548.50,474.50 565.32,494.36 565.32,494.36
             565.32,494.36 587.41,523.32 587.41,523.32
             587.41,523.32 618.50,568.00 618.50,568.00
             618.50,568.00 649.50,606.50 649.50,606.50
             649.50,606.50 683.00,649.00 683.00,649.00
             683.00,649.00 704.00,676.00 704.00,676.00" />
  <path id="12"
        fill="none" stroke="black" stroke-width="1"
        d="M 517.50,450.00
           C 517.50,450.00 531.00,471.50 531.00,471.50
             531.00,471.50 553.00,514.00 553.50,514.00
             554.00,514.00 573.50,550.00 573.50,550.00
             573.50,550.00 599.50,599.00 599.50,599.00
             599.50,599.00 618.00,634.00 618.00,634.00
             618.00,634.00 632.50,663.00 632.50,663.00
             632.50,663.00 639.50,676.50 639.50,676.50" />
  <path id="11"
        fill="none" stroke="black" stroke-width="1"
        d="M 516.00,450.25
           C 516.00,450.25 525.25,473.75 525.25,473.75
             525.25,473.75 541.50,512.50 541.50,512.50
             541.50,512.50 558.50,551.25 558.50,551.25
             558.50,551.25 569.25,577.00 569.25,577.00
             569.25,577.00 588.50,623.75 588.50,623.75
             588.50,623.75 607.00,667.00 607.00,667.00
             607.00,667.00 611.50,676.00 611.50,676.00" />
  <path id="10"
        fill="none" stroke="black" stroke-width="1"
        d="M 511.50,451.75
           C 511.50,451.75 520.25,471.50 520.25,471.50
             520.25,471.50 535.50,509.50 535.50,509.50
             535.50,509.50 551.50,551.75 551.50,551.75
             551.50,551.75 564.67,586.67 564.67,586.67
             564.67,586.67 582.00,633.33 582.00,633.33
             582.00,633.33 593.33,663.33 593.33,663.33
             593.33,663.33 598.00,676.67 598.00,676.67" />
  <path id="9"
        fill="none" stroke="black" stroke-width="1"
        d="M 504.00,450.67
           C 504.00,450.67 508.00,466.00 508.00,466.00
             508.00,466.00 510.67,479.33 510.67,479.33
             510.67,479.33 515.33,503.33 515.33,503.33
             515.33,503.33 520.67,534.67 520.67,534.67
             520.67,534.67 524.00,554.67 524.00,554.67
             524.00,554.67 530.00,587.33 530.00,587.33
             530.00,587.33 532.67,606.00 532.67,606.00
             532.67,606.00 536.00,630.00 536.67,630.00
             537.33,630.00 540.00,651.33 540.00,651.33
             540.00,651.33 543.33,676.00 543.33,676.00" />
  <path id="8"
        fill="none" stroke="black" stroke-width="1"
        d="M 501.33,450.67
           C 501.33,450.67 504.67,478.00 504.67,478.00
             504.67,478.00 507.33,508.67 507.33,508.67
             507.33,508.67 513.33,556.00 513.33,556.00
             513.33,556.00 516.67,592.67 516.67,592.67
             516.67,592.67 520.67,635.33 520.67,635.33
             520.67,635.33 521.33,660.00 521.33,660.00
             521.33,660.00 522.00,676.00 522.00,676.00" />
  <path id="7"
        fill="none" stroke="black" stroke-width="1"
        d="M 496.67,450.17
           C 496.67,450.17 496.75,478.25 496.75,478.00
             497.25,478.25 497.33,500.67 497.33,500.67
             497.33,500.67 497.00,520.67 497.00,522.00
             497.00,523.33 495.33,553.33 495.33,553.33
             495.33,553.33 495.33,586.00 495.33,586.00
             495.33,586.00 493.33,622.67 493.33,622.67
             493.33,622.67 491.33,646.67 491.33,646.67
             491.33,646.67 486.67,676.00 486.67,676.00" />
  <path id="6"
        fill="none" stroke="black" stroke-width="1"
        d="M 486.67,451.33
           C 486.67,451.33 482.00,472.67 482.00,472.67
             482.00,472.67 472.67,504.67 472.67,504.67
             472.67,504.67 464.67,529.33 464.67,530.00
             464.67,530.67 452.00,566.67 452.00,566.67
             452.00,566.67 441.33,596.67 441.33,596.67
             441.33,596.67 429.33,628.00 429.33,628.00
             429.33,628.00 419.33,659.33 419.33,659.33
             419.33,659.33 413.33,676.00 413.33,676.00" />
  <path id="5"
        fill="none" stroke="black" stroke-width="1"
        d="M 482.67,450.67
           C 482.67,450.67 477.33,471.33 477.33,471.33
             477.33,471.33 468.67,500.00 468.67,500.00
             468.67,500.00 454.67,532.67 454.67,532.67
             454.67,532.67 434.67,580.00 434.67,580.00
             434.67,580.00 414.67,622.67 414.67,622.67
             414.67,622.67 395.33,662.67 395.33,662.67
             395.33,662.67 389.33,675.33 389.33,675.33" />
  <path id="4"
        fill="none" stroke="black" stroke-width="1"
        d="M 479.33,448.67
           C 479.33,448.67 473.33,471.33 473.33,471.33
             473.33,471.33 460.67,501.33 460.67,501.33
             460.67,501.33 438.67,541.33 438.67,542.00
             438.67,542.67 414.00,586.00 414.00,586.00
             414.00,586.00 391.33,622.67 391.33,622.67
             391.33,622.67 366.00,665.33 366.00,665.33
             366.00,665.33 358.67,675.33 358.67,675.33" />
  <path id="3"
        fill="none" stroke="black" stroke-width="1"
        d="M 466.67,447.33
           C 466.67,447.33 460.00,456.67 460.00,456.67
             460.00,456.67 451.33,466.67 451.33,466.67
             451.33,466.67 441.33,475.33 441.33,475.33
             441.33,475.33 426.00,487.33 426.00,487.33
             426.00,487.33 412.00,496.67 412.00,496.67
             412.00,496.67 388.67,514.00 388.67,514.00
             388.67,514.00 360.00,537.33 360.00,537.33
             360.00,537.33 323.33,570.67 323.33,570.67
             323.33,570.67 274.00,611.33 274.00,611.33
             274.00,611.33 233.33,644.67 233.33,644.67
             233.33,644.67 199.33,675.33 199.33,675.33" />
  <path id="2"
        fill="none" stroke="black" stroke-width="1"
        d="M 460.00,445.33
           C 460.00,445.33 452.67,456.67 452.67,456.67
             452.67,456.67 438.67,470.67 438.67,470.67
             438.67,470.67 414.00,484.67 414.00,484.67
             414.00,484.67 394.67,496.67 394.67,496.67
             394.67,496.67 376.00,506.67 375.33,506.67
             374.67,506.67 343.33,522.67 343.33,522.67
             343.33,522.67 311.33,540.00 311.33,540.00
             311.33,540.00 284.00,557.33 284.00,557.33
             284.00,557.33 256.67,578.00 256.67,578.00
             256.67,578.00 217.33,604.00 217.33,604.00
             217.33,604.00 192.67,621.33 192.67,621.33
             192.67,621.33 166.67,643.33 166.67,643.33
             166.67,643.33 140.00,664.67 140.00,664.67
             140.00,664.67 125.33,676.67 125.33,676.67" />
  <path id="1"
        fill="none" stroke="black" stroke-width="1"
        d="M 458.67,444.67
           C 458.67,444.67 446.00,453.33 446.00,453.33
             446.00,453.33 427.67,465.00 427.67,465.00
             427.67,465.00 413.33,470.00 413.33,470.00
             413.33,470.00 397.33,475.00 397.33,475.00
             397.33,475.00 378.33,480.67 378.33,480.67
             378.33,480.67 357.67,486.33 357.67,486.33
             357.67,486.33 338.00,492.00 338.00,492.00
             338.00,492.00 311.33,500.67 311.33,500.67
             311.33,500.67 283.33,508.67 283.33,508.67
             283.33,508.67 252.00,519.00 252.00,519.00
             252.00,519.00 222.00,529.00 222.00,529.00
             222.00,529.00 188.00,543.33 188.00,543.33
             188.00,543.33 157.33,555.33 157.33,555.33
             157.33,555.33 113.33,574.00 113.33,574.00
             113.33,574.00 74.67,588.67 74.67,588.67
             74.67,588.67 40.00,604.00 40.00,604.00
             40.00,604.00 23.33,612.00 23.33,612.00" />
</svg>
