<?xml version="1.0" encoding="UTF-8" standalone="no"?>
<!DOCTYPE svg PUBLIC "-//W3C//DTD SVG 20010904//EN"
              "http://www.w3.org/TR/2001/REC-SVG-20010904/DTD/svg10.dtd">

<svg xmlns="http://www.w3.org/2000/svg"
     width="13.8889in" height="9.40278in"
     viewBox="0 0 1000 677">
  <path id="18"
        fill="none" stroke="black" stroke-width="1"
        d="M 545.67,237.33
           C 545.67,237.33 551.33,232.67 551.33,232.67
             551.33,232.67 566.00,220.67 566.00,220.67
             566.00,220.67 574.33,214.67 574.33,214.67
             574.33,214.67 591.00,206.33 591.00,206.33
             591.00,206.33 615.33,196.33 615.33,196.33
             615.33,196.33 644.33,184.67 644.33,184.67
             644.33,184.67 670.67,173.00 670.67,173.00
             670.67,173.00 696.67,160.00 696.67,160.00
             696.67,160.00 726.67,143.67 726.67,143.67
             726.67,143.67 746.00,132.67 746.00,132.67
             746.00,132.67 756.00,127.50 756.00,127.50
             756.00,127.50 773.50,116.00 773.50,116.00
             773.50,116.00 808.00,94.50 808.00,94.50
             808.00,94.50 864.50,58.50 864.50,58.50
             864.50,58.50 918.50,24.50 918.50,24.50
             918.50,24.50 951.50,0.00 951.50,0.00" />
  <path id="19"
        fill="none" stroke="black" stroke-width="1"
        d="M 538.00,233.33
           C 538.00,233.33 547.00,222.33 547.00,222.33
             547.00,222.33 555.67,216.00 555.67,216.00
             555.67,216.00 574.67,199.00 574.67,199.00
             574.67,199.00 591.00,184.67 591.00,184.67
             591.00,184.67 607.67,170.00 607.67,170.00
             607.67,170.00 628.33,154.00 628.33,154.00
             628.33,154.00 652.00,137.00 652.00,137.00
             652.00,137.00 696.00,100.67 696.00,100.67
             696.00,100.67 717.00,82.67 717.00,82.67
             717.00,82.67 742.33,60.33 742.33,60.33
             742.33,60.33 751.50,53.00 751.50,53.00
             751.50,53.00 775.50,32.50 775.50,32.50
             775.50,32.50 797.00,15.00 797.00,15.00
             797.00,15.00 813.50,0.00 813.50,0.00" />
  <path id="20"
        fill="none" stroke="black" stroke-width="1"
        d="M 533.00,231.33
           C 533.00,231.33 538.33,220.33 538.33,220.33
             538.33,220.33 546.67,208.33 546.67,208.33
             546.67,208.33 557.33,193.67 557.33,193.33
             557.33,193.00 566.00,183.00 566.00,183.00
             566.00,183.00 580.00,164.33 580.00,164.33
             580.00,164.33 595.00,146.33 595.00,146.33
             595.00,146.33 619.33,117.33 619.33,117.33
             619.33,117.33 639.00,94.00 639.00,94.00
             639.00,94.00 663.33,69.00 663.33,69.00
             663.33,69.00 687.33,45.00 687.33,45.00
             687.33,45.00 710.67,22.33 710.67,22.33
             710.67,22.33 734.67,0.33 734.67,0.33" />
  <path id="21"
        fill="none" stroke="black" stroke-width="1"
        d="M 525.50,229.25
           C 525.50,229.25 528.50,220.75 528.50,220.75
             528.50,220.75 535.25,204.75 535.25,204.75
             535.25,204.75 541.75,191.25 541.75,191.00
             541.75,190.75 550.50,172.00 550.50,172.00
             550.50,172.00 559.75,153.58 559.75,153.58
             559.75,153.58 567.50,137.50 567.50,137.50
             567.50,137.50 575.25,119.75 575.25,119.75
             575.25,119.75 589.50,92.75 589.50,92.75
             589.50,92.75 606.08,58.08 606.08,58.08
             606.08,58.08 618.08,33.92 618.08,33.92
             618.08,33.92 627.33,15.83 627.33,15.83
             627.33,15.83 635.75,0.50 635.75,0.50" />
  <path id="22"
        fill="none" stroke="black" stroke-width="1"
        d="M 522.50,228.50
           C 522.50,228.50 525.75,216.50 525.75,216.50
             525.75,216.50 530.00,205.00 530.00,205.00
             530.00,205.00 536.25,187.75 536.25,187.50
             536.25,187.25 542.00,169.50 542.00,169.50
             542.00,169.50 549.00,147.00 549.00,147.00
             549.00,147.00 556.75,124.75 556.75,124.75
             556.75,124.75 565.25,100.00 565.25,100.00
             565.25,100.00 572.00,77.75 572.00,77.75
             572.00,77.75 580.25,53.25 580.25,53.25
             580.25,53.25 588.75,31.50 588.75,31.50
             588.75,31.50 594.25,17.25 594.25,17.25
             594.25,17.25 598.75,4.50 598.75,4.50
             598.75,4.50 600.00,0.00 600.00,0.00" />
  <path id="23"
        fill="none" stroke="black" stroke-width="1"
        d="M 506.75,226.25
           C 506.75,226.25 506.00,214.00 506.00,214.00
             506.00,214.00 506.00,199.25 506.00,199.25
             506.00,199.25 504.50,184.00 504.50,184.00
             504.50,184.00 502.00,167.25 502.00,167.25
             502.00,167.25 499.00,149.25 499.00,149.25
             499.00,149.25 495.75,129.50 495.75,129.50
             495.75,129.50 491.75,108.00 491.75,108.00
             491.75,108.00 488.50,88.00 488.50,88.00
             488.50,88.00 487.00,73.75 487.00,73.75
             487.00,73.75 484.50,56.75 484.50,56.75
             484.50,56.75 483.50,39.50 483.50,39.50
             483.50,39.50 482.25,24.50 482.25,24.50
             482.25,24.50 481.75,11.50 481.75,11.50
             481.75,11.50 481.25,0.00 481.25,0.00" />
  <path id="24"
        fill="none" stroke="black" stroke-width="1"
        d="M 498.25,225.50
           C 498.25,225.50 497.75,217.25 497.75,217.25
             497.75,217.25 495.00,208.00 495.00,208.00
             495.00,208.00 490.00,198.25 490.00,198.25
             490.00,198.25 486.25,191.00 486.25,191.00
             486.25,191.00 478.25,180.50 478.25,180.50
             478.25,180.50 471.00,170.50 471.00,170.50
             471.00,170.50 463.00,158.75 463.00,158.75
             463.00,158.75 452.75,140.25 452.75,140.25
             452.75,140.25 440.50,117.25 440.50,117.25
             440.50,117.25 425.50,88.75 425.50,88.75
             425.50,88.75 416.75,71.00 416.75,71.00
             416.75,71.00 408.00,52.00 408.00,52.00
             408.00,52.00 400.50,31.75 400.50,31.75
             400.50,31.75 394.00,16.50 394.00,16.50
             394.00,16.50 390.25,3.50 390.00,3.25
             389.75,3.00 388.25,0.00 388.25,0.00" />
  <path id="25"
        fill="none" stroke="black" stroke-width="1"
        d="M 492.73,225.82
           C 492.73,225.82 490.55,215.09 490.55,215.09
             490.55,215.09 486.73,205.27 486.73,205.27
             486.73,205.27 479.64,192.00 479.64,192.00
             479.64,192.00 471.64,180.00 471.64,180.00
             471.64,180.00 458.00,165.27 458.00,165.27
             458.00,165.27 446.00,150.18 446.00,150.18
             446.00,150.18 433.67,136.00 433.67,136.00
             433.67,136.00 421.33,117.67 421.33,117.67
             421.33,117.67 403.00,87.33 403.00,87.33
             403.00,87.33 388.33,63.67 388.33,63.67
             388.33,63.67 376.67,42.00 376.67,42.00
             376.67,42.00 365.33,22.33 365.33,22.33
             365.33,22.33 356.00,8.00 356.00,8.00
             356.00,8.00 350.33,-0.67 350.33,-0.67" />
  <path id="26"
        fill="none" stroke="black" stroke-width="1"
        d="M 490.67,226.33
           C 490.67,226.33 482.67,204.00 482.67,204.00
             482.67,204.00 474.00,192.33 474.00,192.33
             474.00,192.33 463.00,178.67 463.00,178.67
             463.00,178.67 443.67,157.67 443.67,157.67
             443.67,157.67 416.67,135.00 416.67,135.00
             416.67,135.00 381.00,104.33 381.00,104.33
             381.00,104.33 367.00,87.00 367.00,86.67
             367.00,86.33 350.00,66.00 350.00,66.00
             350.00,66.00 330.00,41.00 330.00,41.00
             330.00,41.00 304.00,12.00 304.00,12.00
             304.00,12.00 291.00,0.00 291.00,0.00" />
  <path id="13"
        fill="none" stroke="black" stroke-width="1"
        d="M 537.50,445.00
           C 537.50,445.00 553.00,458.50 553.00,458.50
             553.00,458.50 572.00,474.00 572.00,474.00
             572.00,474.00 592.00,492.00 592.00,492.00
             592.00,492.00 619.00,517.50 619.50,517.50
             620.00,517.50 642.50,536.50 642.50,537.00
             642.50,537.50 681.00,569.00 681.00,569.00
             681.00,569.00 709.50,594.50 710.00,594.50
             710.50,594.50 739.00,619.50 739.00,619.50
             739.00,619.50 767.00,643.50 767.00,643.50
             767.00,643.50 792.00,665.50 792.50,665.50
             793.00,665.50 805.50,677.00 805.50,677.00" />
  <path id="12"
        fill="none" stroke="black" stroke-width="1"
        d="M 523.00,449.50
           C 523.00,449.50 532.50,464.00 532.50,464.00
             532.50,464.00 541.00,478.00 541.00,478.00
             541.00,478.00 552.00,493.00 552.00,493.00
             552.00,493.00 569.50,520.50 569.50,520.50
             569.50,520.50 585.00,544.00 585.00,544.00
             585.00,544.00 604.50,577.00 604.50,577.00
             604.50,577.00 619.00,602.50 619.00,602.50
             619.00,602.50 637.50,632.50 637.50,632.50
             637.50,632.50 652.50,659.50 652.50,659.50
             652.50,659.50 661.50,674.50 661.50,674.50" />
  <path id="11"
        fill="none" stroke="black" stroke-width="1"
        d="M 519.00,450.00
           C 519.00,450.00 529.50,471.00 529.50,471.00
             529.50,471.00 545.50,498.00 545.50,498.00
             545.50,498.00 564.50,534.00 564.50,534.00
             564.50,534.00 578.00,559.00 578.50,559.00
             579.00,559.00 595.00,589.50 595.00,590.00
             595.00,590.50 610.00,619.00 610.00,619.00
             610.00,619.00 624.00,647.00 624.00,647.00
             624.00,647.00 636.50,669.50 636.50,669.50
             636.50,669.50 640.50,677.50 640.50,677.50" />
  <path id="14"
        fill="none" stroke="black" stroke-width="1"
        d="M 546.18,440.36
           C 546.18,440.36 554.00,441.82 554.00,441.82
             554.00,441.82 562.91,444.73 562.91,444.73
             562.91,444.73 570.55,448.00 570.55,448.00
             570.55,448.00 576.55,451.45 576.73,451.45
             576.91,451.45 582.73,454.36 582.73,454.55
             582.73,454.73 587.45,457.64 587.45,457.64
             587.45,457.64 597.09,466.00 597.09,466.00
             597.09,466.00 604.55,470.91 604.55,470.91
             604.55,470.91 613.39,476.61 613.39,476.61
             613.39,476.61 620.00,480.61 620.00,480.61
             620.00,480.61 628.18,486.73 628.18,486.73
             628.18,486.73 637.82,492.55 637.82,492.55
             637.82,492.55 657.64,504.18 657.64,504.18
             657.64,504.18 670.09,511.05 670.09,511.05
             670.09,511.05 688.00,521.00 688.00,521.00
             688.00,521.00 703.50,530.50 703.50,530.50
             703.50,530.50 713.00,536.00 713.00,536.00
             713.00,536.00 726.00,543.50 726.00,543.50
             726.00,543.50 742.50,552.50 742.50,552.50
             742.50,552.50 758.50,562.00 758.50,562.00
             758.50,562.00 779.00,574.00 779.00,574.00
             779.00,574.00 807.67,591.33 807.67,591.33
             807.67,591.33 834.67,607.83 834.67,607.83
             834.67,607.83 854.33,620.33 854.33,620.33
             854.33,620.33 874.17,633.50 874.17,633.50
             874.17,633.50 902.33,652.17 902.33,652.17
             902.33,652.17 937.33,677.00 937.33,677.00" />
  <path id="16"
        fill="none" stroke="black" stroke-width="1"
        d="M 570.50,424.50
           C 570.50,424.50 583.50,429.25 583.50,429.25
             583.50,429.25 592.75,429.50 592.75,429.50
             592.75,429.50 611.25,430.75 611.25,430.75
             611.25,430.75 629.50,430.75 629.50,430.75
             629.50,430.75 650.50,432.25 650.50,432.25
             650.50,432.25 670.25,433.50 670.25,433.50
             670.25,433.50 686.50,435.75 686.50,435.75
             686.50,435.75 700.50,437.50 700.50,437.50
             700.50,437.50 715.64,441.09 715.64,441.09M 715.45,440.91
           C 715.45,440.91 732.00,446.30 732.00,446.30
             732.00,446.30 749.27,452.36 749.27,452.36
             749.27,452.36 770.55,460.55 770.55,460.55
             770.55,460.55 793.64,468.55 793.64,468.55
             793.64,468.55 818.18,477.64 818.18,477.64
             818.18,477.64 847.50,487.50 847.50,487.50
             847.50,487.50 892.50,505.00 892.50,505.00
             892.50,505.00 925.50,517.00 925.50,517.00
             925.50,517.00 959.50,528.67 959.50,528.67
             959.50,528.67 985.00,536.50 985.00,536.50
             985.00,536.50 998.50,540.00 998.50,540.00" />
  <path id="15"
        fill="none" stroke="black" stroke-width="1"
        d="M 574.91,421.09
           C 574.91,421.09 595.09,436.73 595.09,436.73
             595.09,436.73 614.00,449.09 614.00,449.09
             614.00,449.09 635.82,461.09 635.82,461.09
             635.82,461.09 657.09,470.00 657.09,470.00
             657.09,470.00 685.33,480.67 685.33,480.67
             685.33,480.67 722.67,498.00 722.67,498.00
             722.67,498.00 757.33,516.00 757.33,516.00
             757.33,516.00 788.67,531.33 788.67,531.33
             788.67,531.33 829.33,550.67 829.33,550.67
             829.33,550.67 868.67,570.67 868.67,570.67
             868.67,570.67 926.00,600.67 926.00,600.67
             926.00,600.67 966.00,621.33 966.00,621.33
             966.00,621.33 986.00,632.00 986.00,632.00
             986.00,632.00 999.33,640.00 999.33,640.00" />
  <path id="17"
        fill="none" stroke="black" stroke-width="1"
        d="M 577.50,418.25
           C 577.50,418.25 587.25,422.25 587.25,422.25
             587.25,422.25 597.75,423.50 597.75,423.50
             597.75,423.50 605.75,423.00 605.75,423.00
             605.75,423.00 620.75,421.50 620.75,421.50
             620.75,421.50 636.50,420.00 636.50,420.00
             636.50,420.00 655.25,417.25 655.25,417.25
             655.25,417.25 669.00,415.00 669.00,415.00
             669.00,415.00 678.00,413.25 678.00,413.25
             678.00,413.25 692.50,408.50 692.50,408.50
             692.50,408.50 709.75,403.25 709.75,403.25
             709.75,403.25 734.75,398.25 734.75,398.25
             734.75,398.25 756.00,394.00 756.00,394.00
             756.00,394.00 791.25,387.25 791.25,387.25
             791.25,387.25 812.25,384.25 812.25,384.25
             812.25,384.25 844.50,381.50 844.50,381.50
             844.50,381.50 860.00,380.00 860.00,380.00
             860.00,380.00 882.00,378.50 882.00,378.50
             882.00,378.50 910.00,377.50 910.00,377.50
             910.00,377.50 937.50,376.00 937.50,376.00
             937.50,376.00 970.00,375.00 970.00,375.00
             970.00,375.00 1000.00,375.50 1000.00,375.50" />
  <path id="10"
        fill="none" stroke="black" stroke-width="1"
        d="M 511.75,450.50
           C 511.75,450.50 514.25,459.50 514.25,459.50
             514.25,459.50 517.25,466.75 517.25,466.75
             517.25,466.75 522.25,477.25 522.25,477.25
             522.25,477.25 527.50,491.50 527.50,491.50
             527.50,491.50 533.50,506.50 533.50,506.50
             533.50,506.50 539.50,521.50 539.50,521.50
             539.50,521.50 546.00,536.25 546.00,536.25
             546.00,536.25 553.00,554.25 553.00,554.25
             553.00,554.25 558.50,568.75 558.50,568.75
             558.50,568.75 567.25,594.50 567.25,594.50
             567.25,594.50 577.00,620.75 577.00,620.75
             577.00,620.75 590.00,652.00 590.00,652.00
             590.00,652.00 600.00,676.75 600.00,676.75" />
  <path id="9"
        fill="none" stroke="black" stroke-width="1"
        d="M 503.50,450.75
           C 503.50,450.75 504.00,455.00 504.00,455.00
             504.00,455.00 507.50,466.75 507.50,466.75
             507.50,466.75 511.50,482.50 511.50,482.50
             511.50,482.50 514.00,495.75 514.00,495.75
             514.00,495.75 517.75,511.75 517.75,511.75
             517.75,511.75 521.50,526.00 521.50,526.00
             521.50,526.00 525.00,540.50 525.00,540.50
             525.00,540.50 528.50,552.75 528.50,552.75
             528.50,552.75 531.25,564.75 531.25,564.75
             531.25,564.75 534.50,579.25 534.50,579.25
             534.50,579.25 537.50,592.25 537.50,592.25
             537.50,592.25 541.00,609.00 541.00,609.25
             541.00,609.50 544.75,626.00 544.75,626.00
             544.75,626.00 549.00,643.00 549.00,644.00
             549.00,645.00 551.75,656.75 551.75,656.75
             551.75,656.75 554.50,668.50 554.50,668.50
             554.50,668.50 555.75,676.75 555.75,676.75" />
  <path id="8"
        fill="none" stroke="black" stroke-width="1"
        d="M 500.50,450.50
           C 500.50,450.50 501.50,456.50 501.50,456.50
             501.50,456.50 502.50,468.00 502.50,468.00
             502.50,468.00 504.25,481.50 504.25,481.50
             504.25,481.50 505.50,498.75 505.50,498.75
             505.50,498.75 507.25,515.00 507.25,515.00
             507.25,515.00 509.25,533.75 509.25,533.75
             509.25,533.75 511.00,550.25 511.00,550.25
             511.00,550.25 513.00,568.25 513.00,568.25
             513.00,568.25 515.00,587.00 515.00,587.00
             515.00,587.00 516.00,603.00 516.00,603.00
             516.00,603.00 517.75,625.25 517.75,625.25
             517.75,625.25 519.25,641.75 519.25,641.75
             519.25,641.75 520.25,658.00 520.25,658.00
             520.25,658.00 522.25,676.75 522.25,676.75" />
  <path id="7"
        fill="none" stroke="black" stroke-width="1"
        d="M 491.25,450.50
           C 491.25,450.50 490.75,459.25 490.75,459.25
             490.75,459.25 490.00,469.25 489.75,469.25
             489.50,469.25 488.50,478.00 488.50,478.00
             488.50,478.00 486.25,491.50 486.25,491.50
             486.25,491.50 484.50,502.75 484.50,502.75
             484.50,502.75 481.75,518.75 481.75,518.75
             481.75,518.75 479.00,535.25 479.00,535.25
             479.00,535.25 476.00,552.25 476.00,552.25
             476.00,552.25 472.25,570.25 472.25,570.25
             472.25,570.25 468.00,592.25 468.00,592.25
             468.00,592.25 465.00,606.50 465.00,606.50
             465.00,606.50 461.25,628.50 461.00,628.50
             460.75,628.50 457.00,647.50 457.00,647.50
             457.00,647.50 454.50,661.50 454.50,661.50
             454.50,661.50 452.00,676.75 452.00,676.75" />
  <path id="6"
        fill="none" stroke="black" stroke-width="1"
        d="M 483.00,449.67
           C 483.00,449.67 481.82,456.91 481.82,456.91
             481.82,456.91 479.45,466.36 479.45,466.36
             479.45,466.36 476.91,475.27 476.91,475.27
             476.91,475.27 473.61,485.86 473.61,485.86
             473.61,485.86 467.16,502.73 467.16,502.73
             467.16,502.73 461.93,516.25 461.93,516.25
             461.93,516.25 454.80,533.66 454.80,533.66
             454.80,533.66 447.93,549.64 447.93,549.64
             447.93,549.64 442.48,561.27 442.48,561.27
             442.48,561.27 435.45,574.55 435.64,574.91
             435.82,575.27 430.91,586.00 430.91,586.00
             430.91,586.00 425.09,599.45 425.09,599.45
             425.09,599.45 416.25,618.92 416.25,618.92
             416.25,618.92 410.25,632.25 410.25,632.25
             410.25,632.25 404.25,645.75 404.25,646.00
             404.25,646.25 397.00,662.00 397.00,662.00
             397.00,662.00 389.50,677.75 389.50,677.75" />
  <path id="5"
        fill="none" stroke="black" stroke-width="1"
        d="M 479.67,449.00
           C 479.67,449.00 477.12,460.00 477.12,460.00
             477.12,460.00 473.75,470.00 473.62,470.00
             473.50,470.00 470.25,478.38 470.25,478.38
             470.25,478.38 465.88,488.62 465.88,488.62
             465.88,488.62 461.12,497.50 461.12,497.50
             461.12,497.50 457.38,505.88 457.38,505.88
             457.38,505.88 452.12,516.75 452.12,516.75
             452.12,516.75 445.67,529.00 445.67,529.00
             445.67,529.00 437.33,544.67 437.33,544.67
             437.33,544.67 426.25,563.25 426.25,563.25
             426.25,563.25 418.00,577.17 418.00,577.17
             418.00,577.17 413.25,586.33 413.25,586.33
             413.25,586.33 408.00,595.00 408.00,595.00
             408.00,595.00 401.75,605.50 401.75,605.50
             401.75,605.50 393.25,619.00 393.25,619.00
             393.25,619.00 386.50,630.25 386.50,630.25
             386.50,630.25 376.00,647.75 376.00,647.75
             376.00,647.75 367.25,662.00 367.25,662.00
             367.25,662.00 359.00,677.25 359.00,677.25" />
  <path id="4"
        fill="none" stroke="black" stroke-width="1"
        d="M 471.62,447.25
           C 471.62,447.25 467.12,456.62 467.12,456.62
             467.12,456.62 459.75,467.00 459.75,467.00
             459.75,467.00 453.25,475.62 453.12,475.62
             453.00,475.62 442.88,488.50 442.88,488.50
             442.88,488.50 430.33,501.00 430.33,501.00
             430.33,501.00 409.67,521.67 409.67,521.67
             409.67,521.67 390.00,539.67 390.00,539.67
             390.00,539.67 367.67,560.67 367.67,560.67
             367.67,560.67 348.00,579.00 348.00,579.00
             348.00,579.00 328.67,597.33 328.67,597.33
             328.67,597.33 308.33,617.00 308.33,617.00
             308.33,617.00 288.33,638.00 288.33,638.00
             288.33,638.00 274.33,652.67 274.33,652.67
             274.33,652.67 260.33,667.67 260.33,667.67
             260.33,667.67 252.33,676.33 252.33,676.33" />
  <path id="3"
        fill="none" stroke="black" stroke-width="1"
        d="M 468.00,446.33
           C 468.00,446.33 462.00,455.67 462.00,455.67
             462.00,455.67 455.00,463.67 455.00,463.67
             455.00,463.67 446.33,472.00 446.33,472.00
             446.33,472.00 437.33,480.33 437.33,480.33
             437.33,480.33 423.00,491.50 423.00,491.50
             423.00,491.50 411.50,500.50 411.50,500.50
             411.50,500.50 398.50,510.50 398.00,510.50
             397.50,510.50 383.00,520.83 383.00,520.83
             383.00,520.83 370.50,530.50 370.50,530.50
             370.50,530.50 358.50,540.50 358.50,540.50
             358.50,540.50 343.17,553.33 343.17,553.33
             343.17,553.33 327.00,567.83 327.00,567.83
             327.00,567.83 309.00,583.33 309.00,583.33
             309.00,583.33 293.83,596.33 293.83,596.33
             293.83,596.33 282.00,607.50 282.00,607.50
             282.00,607.50 271.00,617.50 271.00,617.50
             271.00,617.50 258.33,630.67 258.33,630.67
             258.33,630.67 243.67,645.67 243.67,646.00
             243.67,646.33 228.00,663.33 227.67,663.33
             227.33,663.33 215.33,676.67 215.33,676.67" />
  <path id="1"
        fill="none" stroke="black" stroke-width="1"
        d="M 450.50,440.75
           C 450.50,440.75 431.75,452.25 431.75,452.25
             431.75,452.25 416.00,457.75 416.00,457.75
             416.00,457.75 402.25,459.75 402.25,459.75
             402.25,459.75 385.50,459.75 385.50,459.75
             385.50,459.75 361.75,458.25 361.75,458.25
             361.75,458.25 343.00,457.25 343.00,457.25
             343.00,457.25 325.25,457.75 325.25,457.75
             325.25,457.75 313.75,460.00 313.75,460.00
             313.75,460.00 298.73,462.91 298.73,462.91
             298.73,462.91 279.45,466.36 279.45,466.36
             279.45,466.36 257.09,471.64 257.09,471.64
             257.09,471.64 236.91,475.82 236.91,475.82
             236.91,475.82 221.45,476.18 221.45,476.18
             221.45,476.18 210.55,475.45 210.55,475.45
             210.55,475.45 202.36,472.36 202.36,472.36
             202.36,472.36 194.55,467.64 194.55,467.64
             194.55,467.64 184.18,466.73 184.18,466.73
             184.18,466.73 170.55,467.09 170.55,467.09
             170.55,467.09 154.91,468.73 154.91,468.73
             154.91,468.73 134.73,472.36 134.73,472.36
             134.73,472.36 118.73,476.18 118.73,476.18
             118.73,476.18 101.00,480.75 101.00,480.75
             101.00,480.75 83.00,485.50 82.50,485.50
             82.00,485.50 60.00,490.50 60.00,490.50
             60.00,490.50 35.00,497.00 35.00,497.00
             35.00,497.00 19.00,502.00 19.00,502.00
             19.00,502.00 8.00,506.00 8.00,506.00
             8.00,506.00 0.00,508.75 0.00,508.75" />
  <path id="2"
        fill="none" stroke="black" stroke-width="1"
        d="M 460.00,443.33
           C 460.00,443.33 453.33,449.33 453.33,449.33
             453.33,449.33 446.67,455.33 446.67,455.33
             446.67,455.33 439.33,462.00 439.33,462.00
             439.33,462.00 425.33,471.33 425.33,471.33
             425.33,471.33 411.33,476.67 411.33,476.67
             411.33,476.67 400.00,480.00 400.00,480.00
             400.00,480.00 388.00,482.67 388.00,482.67
             388.00,482.67 366.50,486.00 366.50,486.00
             366.50,486.00 346.67,490.00 346.67,490.00
             346.67,490.00 330.67,494.67 330.67,494.67
             330.67,494.67 313.33,499.67 313.33,499.67
             313.33,499.67 295.67,505.00 295.67,505.00
             295.67,505.00 279.67,509.33 279.67,509.33
             279.67,509.33 264.33,514.33 264.33,514.33
             264.33,514.33 251.33,519.00 250.67,519.00
             250.00,519.00 236.33,523.33 236.33,523.33
             236.33,523.33 224.33,528.00 224.33,528.00
             224.33,528.00 189.00,541.67 189.00,541.67
             189.00,541.67 165.00,552.00 165.00,552.00
             165.00,552.00 130.00,566.00 130.00,566.00
             130.00,566.00 98.50,579.50 98.50,579.50
             98.50,579.50 65.00,595.00 65.00,595.00
             65.00,595.00 37.50,607.50 37.50,607.50
             37.50,607.50 16.00,617.50 16.00,617.50
             16.00,617.50 -0.50,626.00 -0.50,626.00" />
</svg>
